<svg xmlns="http://www.w3.org/2000/svg" xml:space="preserve" fill-rule="evenodd" stroke-linejoin="round" stroke-miterlimit="2" clip-rule="evenodd" viewBox="0 0 2200 1280"><path fill-rule="nonzero" d="M366 0c-91 0-179 33-248 93A376 376 0 0 0 0 403c10 223 117 347 242 414 122 65 259 77 341 80 6 22 21 53 41 88 23 39 53 84 87 126 67 84 149 161 224 169h615c97-7 184-91 259-211 75-119 138-276 182-431 45-155 72-310 75-427 1-58-3-107-15-143-6-18-14-32-24-43a55 55 0 0 0-38-17h-1c-337 18-537 27-709 29v390l-53-27-1-363c-196 0-370-10-699-29-40 0-98-8-160-8Zm22 173h11c22 217 58 349 128 542-88-13-169-34-231-78a307 307 0 0 1-126-229c-7-59 2-119 38-164 33-41 90-70 180-71Zm730 214c13 0 26 3 39 9l64 31-46 94h-1a58 58 0 0 0-44 93l-80 162a57 57 0 0 0 1 115 58 58 0 0 0 40-98l77-158c16 2 32-3 44-14 30 15 54 26 71 36 27 14 36 24 39 35 2 10-1 31-16 66a2208 2208 0 0 1-53 109c-31 0-57 26-57 57v1a57 57 0 0 0 77 53 58 58 0 0 0 23-92c22-46 39-82 51-111 16-38 25-67 17-95-7-27-30-45-59-62-20-11-44-22-74-36 1-16-5-32-16-43l46-93 249 122a90 90 0 0 1 42 121l-171 353a90 90 0 0 1-121 42L906 912a90 90 0 0 1-42-121l172-353c15-32 47-51 82-51Z"/></svg>
